<svg xmlns:xlink="http://www.w3.org/1999/xlink" xmlns="http://www.w3.org/2000/svg" viewBox="0 0 350 167.2606314210812" preserveAspectRatio="xMidYMid meet" class="css-grg60t" id="edfgdbbf" width="350"  height="167.2606314210812" ><defs id="SvgjsDefs2448"></defs><g id="SvgjsG2449" featurekey="1p4tPl-0" transform="matrix(1.4000000000000001,0,0,1.4000000000000001,105,0)" fill="#005D6C"><path xmlns="http://www.w3.org/2000/svg" fill="none" d="M33.154,22.1c-0.497,1.66-0.768,3.417-0.768,5.238c0,10.099,8.217,18.317,18.318,18.317  c10.1,0,18.316-8.218,18.316-18.317c0-10.101-8.216-18.319-18.316-18.319c-4.343,0-8.335,1.522-11.478,4.056"></path><path xmlns="http://www.w3.org/2000/svg" fill="none" d="M42.464,17.255c2.297-1.94,5.265-3.112,8.506-3.112c7.287,0,13.193,5.907,13.193,13.194  c0,7.286-5.906,13.193-13.193,13.193c-7.285,0-13.193-5.907-13.193-13.193c0-1.299,0.191-2.555,0.542-3.74"></path><path xmlns="http://www.w3.org/2000/svg" fill="#005D6C" d="M50.97,40.53c7.287,0,13.193-5.907,13.193-13.193c0-7.288-5.906-13.194-13.193-13.194  c-3.242,0-6.209,1.172-8.506,3.112L50,26.983L38.32,23.597c-0.35,1.186-0.542,2.441-0.542,3.74  C37.777,34.623,43.686,40.53,50.97,40.53z"></path><path xmlns="http://www.w3.org/2000/svg" fill="#005D6C" d="M98.35,25.7C86.324,9.366,68.458,0,49.332,0C31.055,0,13.701,8.692,1.724,23.848L0,26.029l1.648,2.238  c12.028,16.334,29.895,25.699,49.019,25.699c18.278,0,35.63-8.692,47.608-23.848L100,27.938L98.35,25.7z M50.704,45.654  c-10.101,0-18.318-8.218-18.318-18.317c0-1.821,0.271-3.578,0.768-5.238l-4.199-1.218c-0.609,2.048-0.941,4.212-0.941,6.456  c0,6.838,3.054,12.965,7.856,17.127c-10.181-3.103-19.418-9.381-26.622-18.278C16.63,17.7,25.992,11.799,36.174,9.049l0.378,0.572  l2.676,3.454c3.143-2.534,7.135-4.056,11.478-4.056c10.1,0,18.316,8.217,18.316,18.319C69.02,37.437,60.804,45.654,50.704,45.654z   M65.624,44.388c4.75-4.162,7.77-10.255,7.77-17.05c0-7.044-3.229-13.348-8.279-17.512c9.791,3.201,18.667,9.345,25.638,17.955  C83.807,35.763,75.109,41.449,65.624,44.388z"></path></g><g id="SvgjsG2450" featurekey="dYASrj-0" transform="matrix(3.6448588923363827,0,0,3.6448588923363827,-4.164614249282313,77.77570553831808)" fill="#00043C"><path d="M8.0469 20.18555 c-3.916 0 -6.9043 -2.6953 -6.9043 -7.0996 c0 -4.3945 2.9883 -7.0801 6.9043 -7.0801 c3.8965 0 6.8945 2.6855 6.8945 7.0801 c0 4.4043 -2.998 7.0996 -6.8945 7.0996 z M8.0469 18.3594 c2.7637 0 4.9512 -1.9141 4.9512 -5.2734 c0 -3.3301 -2.1875 -5.2441 -4.9512 -5.2441 c-2.7734 0 -4.9707 1.9141 -4.9707 5.2441 c0 3.3594 2.1973 5.2734 4.9707 5.2734 z M18.290984375 20 l0 -8.1934 l-1.8652 0 l0 -1.4746 l1.8652 0 l0 -1.8652 c0 -3.0273 1.7188 -3.4668 4.082 -3.4668 l0 1.5527 c-1.0645 0 -2.2168 -0.019531 -2.2168 1.9434 l0 1.8359 l4.4141 0 l0 -1.8652 c0 -3.0273 1.709 -3.4668 4.0723 -3.4668 l0 1.5527 c-1.0645 0 -2.207 -0.019531 -2.207 1.9434 l0 1.8359 l2.207 0 l0 1.4746 l-2.207 0 l0 8.1934 l-1.8652 0 l0 -8.1934 l-4.4141 0 l0 8.1934 l-1.8652 0 z M31.5038875 8.193 c-0.66406 0 -1.2305 -0.54688 -1.2305 -1.2207 s0.56641 -1.2109 1.2305 -1.2109 c0.6543 0 1.2109 0.53711 1.2109 1.2109 s-0.55664 1.2207 -1.2109 1.2207 z M30.5468875 20 l0 -9.668 l1.8848 0 l0 9.668 l-1.8848 0 z M39.863328125 20.17578 c-2.8125 0 -4.8926 -2.002 -4.8926 -5.0195 s2.0801 -5.0195 4.8926 -5.0195 c2.1875 0 3.9063 1.1914 4.4824 3.2617 l-1.748 0.26367 c-0.42969 -1.2891 -1.4746 -1.9824 -2.7539 -1.9824 c-1.7188 0 -2.998 1.3672 -2.998 3.4766 c0 2.0996 1.2793 3.4766 2.998 3.4766 c1.2793 0 2.3242 -0.69336 2.7539 -1.9824 l1.748 0.26367 c-0.57617 2.0605 -2.3242 3.2617 -4.4824 3.2617 z M47.714825 8.193 c-0.66406 0 -1.2305 -0.54688 -1.2305 -1.2207 s0.56641 -1.2109 1.2305 -1.2109 c0.6543 0 1.2109 0.53711 1.2109 1.2109 s-0.55664 1.2207 -1.2109 1.2207 z M46.757825 20 l0 -9.668 l1.8848 0 l0 9.668 l-1.8848 0 z M54.248065625 20.18555 c-1.5918 0 -2.959 -0.78125 -2.959 -2.6465 c0 -2.0215 1.6016 -2.6855 3.6719 -3.0469 l1.5234 -0.26367 c0.61523 -0.11719 0.87891 -0.41016 0.87891 -0.88867 c0 -1.3281 -0.99609 -1.7969 -2.0508 -1.7969 c-1.1133 0 -2.0313 0.49805 -2.1777 1.7676 l-1.6895 -0.3418 c0.3125 -1.9043 1.7285 -2.8125 3.9551 -2.8125 c1.9434 0 3.7695 0.77148 3.7695 3.3691 l0 3.916 c0 0.99609 0.2832 1.2402 0.9668 1.2402 l0.14648 0 l0 1.3184 l-0.9082 0 c-1.0156 0 -1.6797 -0.40039 -1.875 -1.2988 l-0.087891 0 c-0.77148 1.0645 -1.9824 1.4844 -3.1641 1.4844 z M54.677765625 18.6914 c1.6406 0 2.8223 -1.25 2.8223 -3.3008 l-2.5293 0.51758 c-1.2012 0.20508 -1.8555 0.60547 -1.8555 1.4844 c0 0.91797 0.69336 1.2988 1.5625 1.2988 z M62.607434375 20 l0 -15 l1.8848 0 l0 15 l-1.8848 0 z M75.781275 7.939 l-5.5273 0 l0 4.2969 l4.873 0 l0 1.7383 l-4.873 0 l0 4.2676 l5.5273 0 l0 1.7578 l-7.5098 0 l0 -13.809 l7.5098 0 l0 1.748 z M84.67775625 10.332 l1.9727 0 l-5.6738 14.219 l-1.9336 0 l1.9922 -4.7949 l-3.7988 -9.4238 l2.0703 0 l2.666 7.3242 z M97.1680625 14.9805 l-0.029297 0.49805 l-7.4902 0 c0.068359 2.1387 1.416 3.1738 3.0176 3.1738 c1.1523 0 2.1094 -0.625 2.5977 -1.6699 l1.6992 0.33203 c-0.68359 1.7969 -2.3145 2.8711 -4.2773 2.8711 c-2.8711 0 -4.873 -1.8555 -4.873 -5.0195 s2.0508 -5.0293 4.8145 -5.0293 c2.627 0 4.5313 1.582 4.541 4.8438 z M92.6367625 11.5625 c-1.4941 0 -2.6172 0.80078 -2.9102 2.4902 l5.5566 0 c-0.15625 -1.6797 -1.2207 -2.4902 -2.6465 -2.4902 z" fill="#00043C"></path></g></svg>